Genre:Comedy/Drama/Romance
Language:English
IMDb:http://www.imdb.com/title/tt1261945/
Source:SWESUB.PAL.DVDR.iNTERNAL-KAFFEREP.Thanks
Sample:YES
Subtitles: ROMANA

General
Complete name :Sex.and.the.City.2.2010.DVDRIP.XVID.FEEL-FREE
Format : AVI
Format/Info : Audio Video Interleave
File size : 1.61 GiB
Duration : 2h 20mn
Overall bit rate : 1 639 Kbps
Video #0
ID : 0
Format : MPEG-4 Visual
Format profile : Simple@L3
Format settings, BVOP : Yes
Format settings, QPel : No
Format settings, GMC : No warppoints
Format settings, Matrix : Default (H.263)
Codec ID : XVID
Codec ID/Hint : XviD
Duration : 2h 20mn
Bit rate : 1 499 Kbps
Width : 720 pixels
Height : 264 pixels
Display aspect ratio : 2.727
Frame rate : 25.000 fps
Resolution : 24 bits
Scan type : Progressive
Bits/(Pixel*Frame) : 0.315
Stream size : 1.47 GiB (91%)
Audio #1
ID : 1
Format : MPEG Audio
Format version : Version 1
Format profile : Layer 3
Codec ID : 55
Codec ID/Hint : MP3
Duration : 2h 20mn
Bit rate mode : Constant
Bit rate : 128 Kbps
Channel(s) : 2 channels
Sampling rate : 44.1 KHz
Resolution : 16 bits
Stream size : 129 MiB (8%)
Alignment : Aligned on interleaves
Interleave, duration : 26 ms (0.65 video frame)
Writing library : LAME3.97
Plot:
While wrestling with the pressures of life, love, and work in Manhattan, Carrie, Miranda,
and Charlotte join Samantha for a trip to Morocco, where Samantha's ex is filming a new movie